<mxfile host="app.diagrams.net" agent="Mozilla/5.0 (Windows NT 10.0; Win64; x64) AppleWebKit/537.36 (KHTML, like Gecko) Chrome/131.0.0.0 Safari/537.36" version="24.8.6">
  <diagram name="Page-1" id="2xDZtnNYjPdubNFUHDgT">
    <mxGraphModel dx="1050" dy="596" grid="1" gridSize="10" guides="1" tooltips="1" connect="1" arrows="1" fold="1" page="1" pageScale="1" pageWidth="850" pageHeight="1100" math="0" shadow="0">
      <root>
        <mxCell id="0" />
        <mxCell id="1" parent="0" />
        <mxCell id="kFf9_FOot2Pl8ySiQdXH-1" value="&lt;div style=&quot;font-size: 15px;&quot;&gt;&lt;br style=&quot;font-size: 15px;&quot;&gt;&lt;/div&gt;&lt;div style=&quot;font-size: 15px;&quot;&gt;&lt;br style=&quot;font-size: 15px;&quot;&gt;&lt;/div&gt;&lt;div style=&quot;font-size: 15px;&quot;&gt;&lt;br style=&quot;font-size: 15px;&quot;&gt;&lt;/div&gt;&lt;div style=&quot;font-size: 15px;&quot;&gt;&lt;br style=&quot;font-size: 15px;&quot;&gt;&lt;/div&gt;&lt;div style=&quot;font-size: 15px;&quot;&gt;&lt;br style=&quot;font-size: 15px;&quot;&gt;&lt;/div&gt;&lt;div style=&quot;font-size: 15px;&quot;&gt;&lt;br style=&quot;font-size: 15px;&quot;&gt;&lt;/div&gt;User A" style="shape=actor;whiteSpace=wrap;html=1;fontSize=15;" vertex="1" parent="1">
          <mxGeometry x="210" y="180" width="40" height="60" as="geometry" />
        </mxCell>
        <mxCell id="kFf9_FOot2Pl8ySiQdXH-2" value="" style="endArrow=none;html=1;rounded=0;" edge="1" parent="1">
          <mxGeometry width="50" height="50" relative="1" as="geometry">
            <mxPoint x="260" y="200" as="sourcePoint" />
            <mxPoint x="620" y="200" as="targetPoint" />
          </mxGeometry>
        </mxCell>
        <mxCell id="kFf9_FOot2Pl8ySiQdXH-3" value="Polling Server&amp;nbsp;" style="rounded=1;whiteSpace=wrap;html=1;fontSize=19;" vertex="1" parent="1">
          <mxGeometry x="140" y="300" width="120" height="60" as="geometry" />
        </mxCell>
        <mxCell id="kFf9_FOot2Pl8ySiQdXH-4" value="" style="endArrow=none;html=1;rounded=0;" edge="1" parent="1">
          <mxGeometry width="50" height="50" relative="1" as="geometry">
            <mxPoint x="270" y="310" as="sourcePoint" />
            <mxPoint x="610" y="310" as="targetPoint" />
          </mxGeometry>
        </mxCell>
        <mxCell id="kFf9_FOot2Pl8ySiQdXH-5" value="Batch Writer" style="rounded=1;whiteSpace=wrap;html=1;fontSize=19;" vertex="1" parent="1">
          <mxGeometry x="140" y="420" width="120" height="60" as="geometry" />
        </mxCell>
        <mxCell id="kFf9_FOot2Pl8ySiQdXH-6" value="" style="endArrow=none;html=1;rounded=0;" edge="1" parent="1">
          <mxGeometry width="50" height="50" relative="1" as="geometry">
            <mxPoint x="270" y="440" as="sourcePoint" />
            <mxPoint x="610" y="440" as="targetPoint" />
          </mxGeometry>
        </mxCell>
        <mxCell id="kFf9_FOot2Pl8ySiQdXH-7" value="" style="shape=cylinder3;whiteSpace=wrap;html=1;boundedLbl=1;backgroundOutline=1;size=15;" vertex="1" parent="1">
          <mxGeometry x="170" y="530" width="60" height="80" as="geometry" />
        </mxCell>
        <mxCell id="kFf9_FOot2Pl8ySiQdXH-8" value="&lt;div&gt;message not exist&lt;/div&gt;" style="endArrow=none;html=1;rounded=0;" edge="1" parent="1">
          <mxGeometry x="0.7647" y="-30" width="50" height="50" relative="1" as="geometry">
            <mxPoint x="270" y="560" as="sourcePoint" />
            <mxPoint x="610" y="560" as="targetPoint" />
            <mxPoint as="offset" />
          </mxGeometry>
        </mxCell>
        <mxCell id="kFf9_FOot2Pl8ySiQdXH-9" value="message id 123" style="endArrow=classic;html=1;rounded=0;fontSize=12;" edge="1" parent="1">
          <mxGeometry width="50" height="50" relative="1" as="geometry">
            <mxPoint x="280" y="200" as="sourcePoint" />
            <mxPoint x="320" y="310" as="targetPoint" />
          </mxGeometry>
        </mxCell>
        <mxCell id="kFf9_FOot2Pl8ySiQdXH-10" value="ACK" style="endArrow=classic;html=1;rounded=0;fontSize=12;" edge="1" parent="1">
          <mxGeometry width="50" height="50" relative="1" as="geometry">
            <mxPoint x="330" y="310" as="sourcePoint" />
            <mxPoint x="400" y="200" as="targetPoint" />
          </mxGeometry>
        </mxCell>
        <mxCell id="kFf9_FOot2Pl8ySiQdXH-11" value="" style="endArrow=classic;html=1;rounded=0;" edge="1" parent="1">
          <mxGeometry width="50" height="50" relative="1" as="geometry">
            <mxPoint x="360" y="310" as="sourcePoint" />
            <mxPoint x="400" y="380" as="targetPoint" />
          </mxGeometry>
        </mxCell>
        <mxCell id="kFf9_FOot2Pl8ySiQdXH-12" value="queue" style="shape=process;whiteSpace=wrap;html=1;backgroundOutline=1;fontSize=20;" vertex="1" parent="1">
          <mxGeometry x="400" y="350" width="90" height="50" as="geometry" />
        </mxCell>
        <mxCell id="kFf9_FOot2Pl8ySiQdXH-13" value="" style="endArrow=classic;html=1;rounded=0;exitX=0.75;exitY=1;exitDx=0;exitDy=0;" edge="1" parent="1" source="kFf9_FOot2Pl8ySiQdXH-12">
          <mxGeometry width="50" height="50" relative="1" as="geometry">
            <mxPoint x="400" y="330" as="sourcePoint" />
            <mxPoint x="500" y="440" as="targetPoint" />
          </mxGeometry>
        </mxCell>
        <mxCell id="kFf9_FOot2Pl8ySiQdXH-14" value="message id 123" style="endArrow=classic;html=1;rounded=0;fontSize=14;" edge="1" parent="1">
          <mxGeometry width="50" height="50" relative="1" as="geometry">
            <mxPoint x="550" y="440" as="sourcePoint" />
            <mxPoint x="570" y="560" as="targetPoint" />
          </mxGeometry>
        </mxCell>
        <mxCell id="kFf9_FOot2Pl8ySiQdXH-15" value="&lt;div style=&quot;font-size: 14px;&quot;&gt;get message_id =123&lt;/div&gt;" style="endArrow=classic;html=1;rounded=0;align=left;fontSize=14;" edge="1" parent="1">
          <mxGeometry x="-0.7588" y="-30" width="50" height="50" relative="1" as="geometry">
            <mxPoint x="420" y="200" as="sourcePoint" />
            <mxPoint x="500" y="560" as="targetPoint" />
            <mxPoint y="1" as="offset" />
          </mxGeometry>
        </mxCell>
      </root>
    </mxGraphModel>
  </diagram>
</mxfile>
